# xmcd CD database file
#
# Track frame offsets:
#	150
#	14388
#	25666
#	57407
#	75525
#	97016
#	128560
#	143756
#	161080
#	186459
#	200090
#	221897
#	233751
#	248838
#	277371
#	301466
#	316165
#	331414
#
# Disc length: 4649 seconds
#
# Revision: 0
# Processed by: cddbd v1.5.2PL0 Copyright (c) Steve Scherf et al.
# Submitted via: CDex 1.51
#
DISCID=0b122712
DTITLE=Jazz Émotions - Cool
DYEAR=2008
DGENRE=Jazz
TTITLE0=Paul Desmond - Take ten
TTITLE1=Mel Tormé - Fascinating Rhytm
TTITLE2=Miles davis - All of You
TTITLE3=Art Pepper - Straight Life
TTITLE4=Hampton Hawes - What Is This Thing Called Love
TTITLE5=Stan Getz - Three Little Words
TTITLE6=Chet Baker - I Fall In Love Too Easily
TTITLE7=Four Brothers - Four Brothers
TTITLE8=Tony Fruscella - Muy
TTITLE9=Zoot Sims Quartet - Night and day
TTITLE10=The Modern Jazz Quartet - Willow Weep For Me
TTITLE11=Miles Davis And His Ochestra - Move
TTITLE12=Shorty Rogers - Topsy
TTITLE13=Lou Levy - Yesterdays
TTITLE14=Bob Brookmeyer .. - Daydream
TTITLE15=Al Cohn, Bill Perkins, Richie Kamuca - Gay Blade
TTITLE16=Al Cohn - Zoo Sims Sextet - A Moment's Notice
TTITLE17=Chet Baker - Goodbye
EXTD=YEAR: 2008
EXTT0=
EXTT1=
EXTT2=
EXTT3=
EXTT4=
EXTT5=
EXTT6=
EXTT7=
EXTT8=
EXTT9=
EXTT10=
EXTT11=
EXTT12=
EXTT13=
EXTT14=
EXTT15=
EXTT16=
EXTT17=
PLAYORDER=
